<svg xmlns="http://www.w3.org/2000/svg" viewBox="0 0 64 64"><defs><linearGradient id="z" x1="0" y1="0" x2="1" y2="1"><stop offset="0" stop-color="#ffffff"/><stop offset="1" stop-color="#eef2ff"/></linearGradient><linearGradient id="c" gradientUnits="userSpaceOnUse" x1="14" y1="22" x2="46" y2="48"><stop offset="0" stop-color="#2dd4bf"/><stop offset=".5" stop-color="#8b5cf6"/><stop offset="1" stop-color="#f59e0b"/></linearGradient></defs>
<rect width="64" height="64" rx="16" fill="url(#z)"/><rect x=".5" y=".5" width="63" height="63" rx="15.5" fill="none" stroke="#c7d2fe"/>
<path d="M16.5 34 H43.5 A13.5 13.5 0 1 0 40.34 42.68" fill="none" stroke="url(#c)" stroke-width="6.5" stroke-linecap="round"/>
<path d="M43.88 38.46 L42.59 46.53 L36.16 41.13Z" fill="#f59e0b" stroke="#f59e0b" stroke-width="1.5" stroke-linejoin="round"/>
<path d="M49 7.5 C49.84 12.9 51.1 14.16 56.5 15 C51.1 15.84 49.84 17.1 49 22.5 C48.16 17.1 46.9 15.84 41.5 15 C46.9 14.16 48.16 12.9 49 7.5Z" fill="#8b5cf6"/>
<path d="M55.5 22 C55.836 24.16 56.34 24.664 58.5 25 C56.34 25.336 55.836 25.84 55.5 28 C55.164 25.84 54.66 25.336 52.5 25 C54.66 24.664 55.164 24.16 55.5 22Z" fill="#2dd4bf" opacity=".9"/>
</svg>
